<svg xmlns="http://www.w3.org/2000/svg" viewBox="0 0 1921 1111.544"><defs><style>.a{fill:#ffba49;opacity:0.497;}</style></defs><path class="a" d="M0,1618.164V898.421c6.773,6.06,13.474,12.282,19.954,18.3l.029.027.006.006.015.014.075.07.016.015.007.007C33.677,929.462,47.714,942.5,63.8,955.409a153.334,153.334,0,0,0,23.91,15.778,182.091,182.091,0,0,0,24.82,10.912c16.779,6.011,34.252,9.925,51.15,13.71l.017,0,.026.005c16.939,3.795,34.455,7.719,51.285,13.755a182.668,182.668,0,0,1,24.908,10.967,154.026,154.026,0,0,1,24.008,15.868A121.584,121.584,0,0,1,283.3,1055.8a104.653,104.653,0,0,1,13.118,21.563c6.5,14.369,10.012,30.673,10.723,49.845,1.347,36.287-7.456,78.8-17.649,128.032l0,.014v.005l-.09.433-.453,2.192q-.594,2.872-1.193,5.773c-4.331,20.966-8.107,36.578-11.884,49.13a182.872,182.872,0,0,1-12.95,32.83,158.919,158.919,0,0,1-17.434,26.158c-6.948,8.687-15.061,17.7-25.331,29.1l-.015.016-.022.024-.061.068-.016.018c-10.963,12.175-24.608,27.326-41.1,46.945-16.977,20.189-30.217,37.253-41.9,52.308l-.017.023-.012.014-.005.006c-18.9,24.362-33.833,43.6-53.6,61.741A297.146,297.146,0,0,1,48.881,1589.1,543.559,543.559,0,0,1,0,1618.163H0Zm1921-384.024h0a94.753,94.753,0,0,1-15.332-4.589,117.6,117.6,0,0,1-24.7-13.455,150.553,150.553,0,0,1-23.245-20.422,183.45,183.45,0,0,1-20.673-26.912A220.1,220.1,0,0,1,1814,1119.37a262.284,262.284,0,0,1-11.954-60.514,313.022,313.022,0,0,1,2.531-70.2,365.786,365.786,0,0,1,7.755-38.287,411.866,411.866,0,0,1,12.645-40.17c3.98-10.727,7.31-20.988,9.9-30.5a230.872,230.872,0,0,0,5.531-25.652,152.879,152.879,0,0,0,1.818-21.458,109.953,109.953,0,0,0-1.243-17.914,90.432,90.432,0,0,0-3.652-15.024,93.207,93.207,0,0,0-5.409-12.784c-4.049-7.924-8.838-14.794-13.469-21.438l-.011-.016,0-.005c-10.165-14.581-19.764-28.351-19.536-50.315.121-11.732,3.008-24.907,8.828-40.277a275.914,275.914,0,0,1,12.07-26.923c5.089-10.015,11.252-20.979,18.315-32.587a616.522,616.522,0,0,1,37.7-54.563c13.336-17.361,28.54-35.57,45.19-54.121Z" transform="translate(-0.001 -506.62)"/></svg>